<svg xmlns="http://www.w3.org/2000/svg" xmlns:xlink="http://www.w3.org/1999/xlink" version="1.1" id="Layer_1" enable-background="new 0 0 50 37.166" xml:space="preserve" fill="#000000" viewBox="0.73 0.82 49 35.61">

<g id="SVGRepo_bgCarrier" stroke-width="0"/>

<g id="SVGRepo_tracerCarrier" stroke-linecap="round" stroke-linejoin="round"/>

<g id="SVGRepo_iconCarrier"> <g> <path fill="none" stroke="#4C539C" stroke-linecap="round" stroke-linejoin="round" d="M38.044,11.096c0.77,0,1.537,0,2.307,0"/> <path fill="none" stroke="#4C539C" stroke-linecap="round" stroke-linejoin="round" d="M25.662,11.096c2.854,0,5.709,0,8.563,0"/> <rect x="5.935" y="5.014" fill="none" stroke="#4C539C" stroke-linecap="round" stroke-linejoin="round" width="38.582" height="22.832"/> <path fill="none" stroke="#4C539C" d="M47.726,31.596V3.098c0-0.984-0.67-1.782-1.495-1.782H4.22c-0.826,0-1.494,0.798-1.494,1.782 v28.498H47.726z"/> <path fill="none" stroke="#4C539C" d="M1.226,31.648v2.498c0,0.984,0.67,1.781,1.495,1.781h45.011c0.826,0,1.494-0.797,1.494-1.781 v-2.498H1.226z"/> <polygon fill="none" stroke="#4C539C" stroke-linejoin="round" points="20.934,33.846 29.518,33.846 30.518,31.596 19.934,31.596 "/> </g> </g>

</svg>