<svg xmlns="http://www.w3.org/2000/svg" fill="#ffffff" id="cross-circle" data-name="Flat Color" class="icon flat-color" stroke="#ffffff" viewBox="1.5 1.5 21 21">

<g id="SVGRepo_bgCarrier" stroke-width="0"/>

<g id="SVGRepo_tracerCarrier" stroke-linecap="round" stroke-linejoin="round"/>

<g id="SVGRepo_iconCarrier">

<circle id="primary" cx="12" cy="12" r="10" style="fill: #F4F3F6;"/>

<path id="secondary" d="M13.41,12l2.3-2.29a1,1,0,0,0-1.42-1.42L12,10.59,9.71,8.29A1,1,0,0,0,8.29,9.71L10.59,12l-2.3,2.29a1,1,0,0,0,0,1.42,1,1,0,0,0,1.42,0L12,13.41l2.29,2.3a1,1,0,0,0,1.42,0,1,1,0,0,0,0-1.42Z" style="fill: #000000;"/>

</g>

</svg>