<svg xmlns="http://www.w3.org/2000/svg" xmlns:xlink="http://www.w3.org/1999/xlink" version="1.1" id="_x32_" xml:space="preserve" fill="#000000" viewBox="0 96 512 320">

<g id="SVGRepo_bgCarrier" stroke-width="0"/>

<g id="SVGRepo_tracerCarrier" stroke-linecap="round" stroke-linejoin="round"/>

<g id="SVGRepo_iconCarrier"> <style type="text/css"> .st0{fill: #F08B53;} </style> <g> <path class="st0" d="M471.889,135.002c-5.982-8.06-17.373-9.732-25.428-3.77c-8.064,5.955-9.76,17.307-3.781,25.34 c21.566,29.012,32.965,63.402,32.965,99.474c0,36.01-11.398,70.375-32.965,99.386c-5.978,8.034-4.283,19.386,3.781,25.34 c3.252,2.407,7.047,3.566,10.809,3.566c5.562,0,11.051-2.53,14.619-7.334C498.131,341.71,512,299.887,512,256.047 C512,212.154,498.131,170.295,471.889,135.002z"/> <path class="st0" d="M374.012,184.832c-8.06,5.964-9.742,17.316-3.756,25.35c9.959,13.368,15.226,29.215,15.226,45.821 c0,16.606-5.268,32.453-15.226,45.822c-5.986,8.034-4.305,19.386,3.756,25.349c3.258,2.415,7.055,3.574,10.824,3.574 c5.555,0,11.035-2.53,14.606-7.316c14.652-19.66,22.396-42.982,22.396-67.429c0-24.446-7.744-47.768-22.396-67.428 C393.449,180.541,382.057,178.852,374.012,184.832z"/> <path class="st0" d="M44.934,185.695C20.117,185.695,0,205.75,0,230.487v51.028c0,24.737,20.117,44.791,44.934,44.791h82.308 L281.48,416V96l-154.236,89.695H44.934z"/> </g> </g>

</svg>